<?xml version="1.0" standalone="no"?>
<!DOCTYPE svg PUBLIC "-//W3C//DTD SVG 20010904//EN"
 "http://www.w3.org/TR/2001/REC-SVG-20010904/DTD/svg10.dtd">
<svg version="1.0" xmlns="http://www.w3.org/2000/svg"
 width="1001.000000pt" height="1001.000000pt" viewBox="0 0 1001.000000 1001.000000"
 preserveAspectRatio="xMidYMid meet">
<metadata>
Created by potrace 1.11, written by Peter Selinger 2001-2013
</metadata>
<g transform="translate(0.000000,1001.000000) scale(0.100000,-0.100000)"
fill="#000000" stroke="none">
<path d="M8077 9996 c-88 -32 -113 -87 -91 -193 8 -38 17 -81 20 -98 3 -16 10
-50 15 -75 6 -25 13 -56 15 -70 2 -14 7 -36 11 -50 3 -14 7 -29 9 -35 5 -21
25 -131 27 -147 1 -10 5 -18 9 -18 4 0 5 -7 2 -15 -4 -8 -1 -21 5 -29 6 -7 9
-15 6 -17 -2 -3 1 -22 6 -44 13 -54 20 -86 24 -110 2 -11 6 -31 10 -45 3 -14
8 -34 9 -45 2 -11 12 -56 21 -100 10 -44 19 -89 21 -100 1 -11 3 -20 4 -20 3
0 23 -96 24 -117 0 -10 3 -18 6 -18 4 0 6 -10 5 -22 -1 -13 2 -28 7 -35 5 -7
7 -17 4 -22 -4 -5 -3 -12 2 -15 4 -2 9 -17 10 -33 1 -16 8 -52 16 -81 7 -29
11 -52 9 -52 -3 0 -53 41 -111 91 -128 109 -136 116 -187 154 -22 16 -46 35
-54 43 -13 13 -142 107 -195 142 -13 8 -71 48 -131 88 -59 39 -109 72 -111 72
-2 0 -27 15 -56 34 -124 78 -421 235 -568 299 -36 16 -74 33 -85 38 -72 32
-191 79 -200 79 -5 0 -22 6 -37 14 -21 11 -84 35 -108 41 -3 1 -12 4 -20 8
-19 7 -213 66 -237 72 -10 3 -79 20 -153 39 -74 19 -148 37 -165 40 -16 3 -79
14 -140 25 -150 27 -218 36 -361 46 -45 3 -99 8 -120 11 -46 6 -48 6 -94 4
-19 0 -47 1 -63 3 -15 2 -30 1 -33 -4 -2 -5 -15 -5 -27 -1 -12 5 -38 7 -57 5
-19 -2 -48 -3 -65 -2 -16 1 -34 1 -40 0 -5 -1 -46 -3 -90 -5 -137 -7 -280 -18
-372 -30 -24 -3 -60 -8 -80 -11 -21 -2 -49 -7 -63 -10 -28 -6 -82 -15 -120
-19 -23 -3 -158 -30 -205 -41 -11 -3 -47 -11 -80 -19 -33 -7 -72 -18 -87 -24
-16 -7 -28 -9 -28 -7 0 3 -15 -1 -34 -9 -19 -8 -37 -12 -40 -9 -2 3 -11 1 -18
-3 -7 -5 -19 -10 -25 -11 -7 -2 -19 -4 -25 -6 -7 -1 -17 -5 -23 -8 -5 -4 -23
-10 -40 -14 -45 -12 -45 -12 -47 -15 -2 -1 -11 -3 -20 -5 -18 -3 -219 -77
-278 -102 -19 -8 -44 -19 -55 -23 -11 -5 -42 -19 -70 -31 -27 -13 -52 -23 -55
-24 -9 -1 -124 -55 -140 -65 -8 -6 -25 -14 -37 -20 -41 -17 -97 -46 -158 -79
-33 -19 -73 -41 -90 -50 -16 -9 -32 -19 -35 -22 -3 -4 -23 -16 -45 -28 -42
-23 -220 -135 -263 -167 -15 -10 -55 -40 -89 -66 -35 -26 -63 -45 -63 -43 0 3
-8 -3 -19 -12 -10 -10 -33 -29 -52 -43 -18 -14 -43 -34 -55 -45 -39 -35 -64
-55 -69 -55 -3 0 -13 -8 -23 -17 -10 -10 -49 -45 -87 -78 -87 -75 -367 -355
-419 -417 -21 -26 -52 -62 -68 -80 -69 -76 -308 -393 -308 -409 0 -5 -4 -9 -9
-9 -5 0 -14 -13 -21 -30 -7 -16 -16 -30 -21 -30 -4 0 -11 -9 -14 -20 -3 -11
-12 -26 -18 -32 -7 -7 -38 -56 -68 -108 -31 -52 -65 -111 -77 -130 -11 -19
-40 -73 -63 -120 -24 -47 -46 -86 -51 -88 -4 -2 -8 -8 -8 -13 0 -4 -14 -39
-32 -76 -17 -38 -32 -70 -33 -73 -1 -3 -12 -27 -24 -55 -109 -238 -256 -690
-296 -905 -3 -14 -7 -36 -11 -50 -3 -14 -7 -36 -9 -50 -2 -14 -4 -25 -5 -25
-2 0 -9 -40 -14 -80 -2 -16 -7 -46 -11 -65 -4 -19 -9 -51 -12 -70 -2 -19 -6
-46 -7 -60 -32 -238 -41 -381 -40 -655 0 -259 7 -388 30 -570 3 -27 8 -66 10
-85 2 -19 8 -62 13 -94 6 -32 8 -63 5 -67 -3 -5 -1 -9 5 -9 5 0 10 -8 10 -17
-1 -28 11 -106 18 -123 3 -8 7 -24 9 -35 12 -97 112 -455 179 -643 2 -7 5 -14
5 -17 1 -5 106 -263 135 -330 10 -22 16 -42 15 -44 -1 -2 2 -7 7 -10 4 -3 19
-31 33 -61 14 -30 29 -58 33 -61 5 -3 8 -9 8 -13 -1 -8 56 -120 109 -211 22
-38 46 -82 52 -97 7 -16 16 -28 20 -28 4 0 8 -7 8 -15 0 -8 5 -15 10 -15 6 0
10 -5 10 -11 0 -19 270 -408 317 -457 8 -8 26 -30 41 -50 45 -61 254 -294 323
-362 143 -139 237 -225 338 -309 24 -20 52 -43 61 -51 10 -8 31 -24 46 -35 15
-11 32 -25 38 -30 24 -23 212 -158 233 -168 13 -6 23 -14 23 -19 0 -4 7 -8 15
-8 8 0 15 -3 15 -7 0 -5 21 -21 48 -36 26 -15 67 -41 92 -57 25 -16 54 -34 65
-40 11 -5 43 -23 70 -39 89 -52 448 -229 530 -262 44 -17 91 -36 105 -42 14
-6 28 -11 32 -11 3 -1 10 -4 14 -8 4 -5 13 -8 19 -8 7 0 30 -8 51 -17 22 -9
41 -17 44 -18 5 -1 11 -3 175 -55 132 -41 315 -89 315 -83 0 3 7 0 15 -7 8 -7
15 -10 15 -7 0 3 36 -3 80 -13 44 -10 83 -18 85 -19 3 0 15 -3 28 -5 12 -3 40
-7 62 -10 22 -3 47 -7 55 -10 8 -2 38 -7 65 -11 28 -3 61 -8 75 -10 14 -2 54
-6 90 -10 36 -4 76 -8 90 -11 150 -23 795 -23 929 1 14 2 53 7 86 10 65 5 123
13 170 22 17 3 45 6 63 7 17 0 32 3 32 7 0 3 10 5 23 5 12 -1 27 0 32 3 6 3
19 7 30 8 144 21 556 130 668 176 20 9 37 14 37 12 0 -5 91 29 125 46 12 6 27
11 35 13 17 3 26 7 185 76 66 29 126 57 133 62 6 6 12 7 12 2 0 -5 4 -4 8 1 6
9 55 36 72 40 7 1 81 41 128 67 20 11 60 33 88 48 28 15 102 60 165 99 63 40
123 77 134 84 11 7 22 14 25 17 3 3 19 14 35 24 36 23 208 149 251 185 18 14
46 37 65 51 18 14 37 30 43 35 6 6 43 37 81 70 81 70 82 70 211 196 125 121
196 198 324 349 30 36 58 67 63 68 4 2 7 10 7 17 0 7 4 15 9 17 10 3 171 214
171 223 0 3 8 14 18 25 9 10 57 82 107 160 100 159 96 152 149 252 21 40 43
75 47 76 5 2 9 8 9 13 0 4 33 77 74 161 99 203 244 570 271 688 2 8 4 15 5 15
1 0 3 7 5 15 2 8 15 58 30 110 15 52 28 104 30 115 2 11 4 20 5 20 1 0 3 11 6
25 2 14 11 50 18 80 8 30 17 75 21 100 8 52 13 75 15 75 1 0 3 11 5 25 1 14 6
41 9 60 4 19 9 55 12 80 3 25 6 56 9 70 22 135 38 370 39 550 1 140 -7 164
-67 200 -54 33 -114 24 -163 -24 -32 -31 -37 -58 -40 -206 -1 -74 -5 -171 -9
-215 -4 -44 -8 -98 -10 -120 -1 -22 -3 -40 -4 -40 -2 0 -4 -18 -6 -40 -4 -54
-14 -134 -30 -230 -6 -36 -70 -340 -79 -375 -3 -12 -47 -171 -60 -215 -2 -5
-5 -17 -8 -25 -4 -8 -23 -64 -43 -125 -44 -132 -117 -318 -127 -325 -4 -3 -9
-15 -11 -25 -4 -26 -147 -318 -160 -326 -5 -3 -9 -10 -9 -15 0 -5 -19 -40 -41
-79 -23 -38 -40 -73 -39 -77 1 -5 -2 -8 -8 -8 -5 0 -10 -7 -10 -15 0 -8 -4
-15 -10 -15 -5 0 -10 -5 -10 -10 0 -6 -22 -44 -50 -86 -27 -41 -50 -78 -50
-80 0 -3 -6 -12 -12 -19 -30 -33 -38 -45 -33 -45 4 0 0 -6 -7 -13 -7 -8 -22
-26 -33 -41 -82 -112 -184 -243 -215 -277 -8 -9 -37 -43 -65 -75 -62 -74 -341
-352 -418 -419 -32 -28 -64 -55 -70 -60 -7 -6 -34 -28 -62 -50 -27 -22 -52
-42 -55 -45 -3 -3 -50 -39 -105 -80 -55 -41 -103 -79 -107 -85 -4 -5 -8 -6 -8
-2 0 5 -17 -4 -37 -20 -35 -27 -105 -74 -145 -98 -115 -69 -355 -202 -438
-242 -98 -48 -356 -160 -390 -169 -8 -2 -73 -24 -145 -49 -71 -25 -131 -45
-132 -45 -31 -4 -63 -15 -63 -22 0 -5 -4 -7 -9 -4 -4 3 -23 1 -42 -5 -37 -11
-58 -17 -90 -24 -11 -2 -29 -7 -39 -10 -10 -3 -29 -8 -42 -11 -13 -3 -32 -7
-43 -9 -11 -3 -31 -7 -45 -10 -14 -3 -71 -14 -128 -26 -57 -11 -109 -18 -117
-15 -7 2 -16 2 -19 -2 -7 -6 -13 -7 -86 -17 -25 -3 -61 -8 -80 -10 -43 -6
-138 -15 -207 -20 -28 -2 -57 -6 -62 -10 -6 -3 -11 -1 -11 5 0 7 -6 8 -17 2
-10 -5 -124 -7 -253 -6 -217 2 -268 4 -450 20 -36 3 -75 6 -87 7 -13 1 -23 3
-23 7 0 3 -12 5 -27 6 -42 1 -140 16 -265 39 -18 4 -148 32 -228 50 -8 1 -35
8 -60 15 -42 11 -52 14 -99 24 -11 3 -30 10 -43 17 -13 7 -25 12 -28 11 -3 -1
-30 5 -60 14 -30 9 -56 16 -57 15 -2 0 -23 8 -48 19 -25 11 -47 20 -50 20 -11
1 -236 88 -300 115 -22 10 -41 16 -41 14 -1 -2 -11 4 -22 14 -10 10 -28 19
-38 21 -18 4 -219 105 -304 153 -152 87 -333 201 -338 215 -2 4 -8 8 -13 8 -8
0 -147 96 -159 110 -3 3 -23 19 -45 35 -35 26 -198 159 -231 190 -102 92 -208
192 -254 240 -106 109 -169 180 -260 291 -95 115 -109 134 -171 219 -27 39
-56 78 -64 88 -8 9 -15 19 -15 22 0 5 -61 97 -69 105 -4 3 -11 14 -17 25 -27
50 -39 70 -44 75 -26 24 -241 435 -232 444 3 3 0 6 -6 6 -7 0 -12 4 -12 10 0
5 -13 38 -29 72 -34 76 -99 238 -117 293 -7 22 -22 65 -34 95 -11 30 -22 64
-25 75 -2 11 -18 67 -35 125 -17 58 -35 125 -41 150 -5 25 -14 63 -20 85 -5
22 -12 51 -15 65 -2 14 -7 32 -9 40 -3 8 -7 32 -11 54 -3 21 -8 48 -10 60 -11
53 -18 104 -19 134 0 17 -3 32 -6 32 -3 0 -6 6 -6 13 -1 13 -11 119 -18 177
-14 125 -18 214 -19 443 -2 141 0 257 3 257 3 0 6 30 7 68 0 37 4 96 8 132 4
36 7 72 8 80 0 14 6 64 23 175 3 22 10 65 15 95 5 30 12 71 15 90 3 19 23 107
45 195 22 88 43 171 46 184 3 13 10 34 16 45 6 12 11 23 10 26 -1 3 6 30 15
60 9 30 17 60 19 65 1 6 17 48 34 95 18 47 35 94 38 105 3 11 11 31 19 45 7
14 13 28 13 31 0 4 12 33 27 65 15 33 27 61 28 64 8 36 210 429 226 440 3 3 9
15 13 28 4 12 12 22 17 22 5 0 9 5 9 12 0 7 11 28 23 47 13 20 50 77 82 126
60 92 159 230 182 253 7 7 13 16 13 20 0 4 14 23 31 42 17 19 43 51 58 70 14
19 33 41 41 50 8 9 44 49 80 90 139 157 366 374 523 500 11 8 24 20 31 26 56
52 386 284 404 284 7 0 12 4 12 10 0 5 15 17 32 25 18 8 47 24 63 35 17 11 38
23 48 26 9 4 17 10 17 15 0 5 6 9 14 9 8 0 22 7 30 16 9 8 16 13 16 9 0 -3 12
2 27 13 49 34 334 169 468 223 44 17 85 34 90 37 6 4 16 7 23 8 8 2 21 6 30
10 9 4 20 8 25 9 4 2 9 4 12 5 3 1 8 3 13 5 4 1 14 4 22 8 27 10 234 77 255
82 11 2 45 11 75 19 52 15 261 64 305 72 163 29 270 46 315 49 30 3 65 7 77 9
136 28 763 28 948 1 17 -3 48 -7 70 -10 22 -4 51 -8 65 -11 14 -2 45 -7 70
-10 25 -3 48 -8 51 -10 4 -2 24 -6 45 -9 22 -4 47 -8 56 -11 16 -5 40 -10 88
-19 14 -2 50 -12 80 -20 30 -8 67 -17 82 -20 15 -2 36 -9 46 -14 11 -6 22 -7
26 -4 3 3 6 2 6 -3 0 -5 11 -11 23 -12 28 -2 309 -98 349 -118 15 -8 29 -14
30 -13 5 1 69 -25 173 -69 144 -62 573 -286 595 -312 3 -3 22 -14 43 -25 20
-11 37 -23 37 -27 0 -5 3 -7 8 -6 9 3 126 -72 130 -84 2 -4 8 -8 12 -8 25 0
450 -321 488 -368 6 -9 12 -13 12 -10 0 4 15 -8 33 -25 18 -18 57 -53 87 -79
29 -26 52 -50 49 -52 -2 -2 -51 -7 -109 -11 -57 -3 -129 -8 -160 -10 -30 -3
-93 -7 -140 -10 -47 -3 -112 -7 -145 -10 -33 -2 -101 -7 -152 -10 -51 -3 -123
-8 -160 -11 -37 -3 -102 -7 -143 -10 -107 -6 -183 -11 -280 -19 -47 -4 -119
-9 -160 -10 -41 -2 -75 -4 -75 -5 0 0 -18 -2 -40 -4 -55 -3 -111 -42 -130 -90
-36 -89 44 -185 150 -180 22 1 83 5 135 9 52 4 113 9 135 10 49 4 187 14 280
20 39 3 99 7 135 10 63 6 157 12 270 20 174 11 336 22 430 30 36 3 99 8 140
10 391 25 406 27 447 88 28 41 33 92 16 169 -8 35 -15 75 -17 89 -1 14 -5 30
-8 35 -3 5 -9 29 -13 54 -4 25 -9 54 -12 65 -10 44 -25 111 -29 130 -2 11 -10
51 -19 88 -8 37 -17 80 -20 95 -5 27 -6 33 -24 107 -6 22 -13 56 -16 75 -3 19
-11 53 -17 75 -5 22 -12 49 -13 60 -12 76 -17 102 -22 115 -4 8 -6 18 -5 21 1
4 -3 21 -8 39 -5 18 -12 51 -16 74 -3 22 -8 44 -11 48 -2 5 -6 18 -8 31 -2 12
-7 36 -10 52 -3 17 -8 44 -11 60 -3 17 -7 37 -10 45 -3 8 -14 58 -25 110 -29
136 -28 133 -33 155 -2 11 -9 40 -15 65 -5 24 -8 46 -6 49 3 2 1 9 -4 15 -5 6
-12 32 -15 59 -8 59 -22 89 -47 105 -31 20 -100 24 -142 8z"/>
<path d="M3954 6641 c-3 -3 -9 -6 -12 -7 -69 -6 -153 -70 -194 -146 l-23 -43
0 -1625 0 -1625 29 -53 c29 -52 108 -122 138 -122 8 0 18 -3 22 -7 27 -27 182
-12 226 22 8 6 33 21 55 31 22 11 74 38 115 61 41 22 104 55 140 74 36 19 67
37 68 42 2 4 8 7 13 7 5 0 69 33 141 73 73 40 144 78 158 85 64 32 152 81 165
92 8 7 15 9 15 4 0 -5 4 -4 8 1 4 6 25 20 47 32 158 85 235 126 265 141 19 9
37 20 40 23 3 3 28 16 55 30 28 13 52 26 55 29 3 3 34 20 70 39 36 18 113 60
172 92 59 33 111 59 116 59 6 0 12 3 14 8 2 4 19 15 38 24 19 9 67 35 105 56
39 21 115 63 170 92 55 30 118 64 140 77 22 12 63 33 90 47 28 14 73 39 100
54 28 16 88 49 135 74 47 25 108 58 135 73 28 15 82 44 120 64 39 20 72 38 75
41 3 3 22 14 44 25 49 25 98 74 122 122 27 56 28 166 2 221 -24 50 -77 105
-118 124 -17 7 -30 16 -30 20 0 5 -9 8 -20 8 -11 0 -20 4 -20 8 0 5 -16 14
-35 22 -19 8 -35 17 -35 21 0 6 -36 19 -44 16 -2 -1 -12 5 -22 13 -11 9 -44
29 -74 45 -85 44 -124 66 -137 77 -7 6 -13 7 -13 2 0 -5 -4 -4 -8 1 -4 6 -32
23 -62 39 -30 16 -77 41 -105 56 -86 47 -168 92 -210 114 -22 11 -43 26 -47
31 -4 6 -8 7 -8 3 0 -4 -37 14 -82 40 -46 26 -101 56 -123 67 -22 11 -43 25
-47 30 -4 6 -8 6 -8 2 0 -5 -13 1 -29 12 -16 12 -31 21 -34 21 -2 0 -40 20
-83 43 -44 24 -133 72 -199 107 -66 35 -128 70 -137 78 -10 8 -18 11 -18 6 0
-5 -4 -3 -9 4 -4 7 -15 14 -23 16 -9 1 -22 7 -29 13 -8 6 -59 34 -114 63 -55
29 -118 62 -140 75 -22 12 -71 39 -110 60 -38 21 -98 53 -132 71 -35 19 -91
49 -125 68 -35 18 -83 44 -108 58 -25 14 -85 47 -135 73 -49 27 -108 58 -130
70 -22 13 -74 41 -117 63 -42 22 -82 43 -90 48 -16 10 -27 13 -101 23 -31 4
-60 5 -63 2z"/>
</g>
</svg>
