<svg xmlns="http://www.w3.org/2000/svg" viewBox="0 0 973.37 1001.06"><defs><style>.cls-1,.cls-2{fill:#f99;}.cls-2{stroke:#f99;stroke-miterlimit:10;stroke-width:25px;}</style></defs><title>reboot-icon-2</title><g id="Layer_1" data-name="Layer 1"><path class="cls-1" d="M812.33,10.24l40.54,189.19v2.71A14.7,14.7,0,0,1,840.71,217L651.52,230.52a14.71,14.71,0,0,1-14.87-12.17c-1.35-6.75,5.41-13.51,12.17-14.86l159.46-10.81C724.49,114.3,606.92,54.84,486.65,54.84c-254,0-459.46,205.41-459.46,459.46S232.6,973.76,486.65,973.76,946.12,768.36,946.12,514.3a13.53,13.53,0,0,1,13.51-13.51c6.76,0,13.51,6.75,13.51,13.51,0,268.92-217.57,486.49-486.49,486.49S.16,783.22.16,514.3,217.73,27.81,486.65,27.81C611,27.81,728.55,84.57,815,163L784,17V15.65C782.6,8.89,788,2.14,796.11.78,805.57-1.92,812.33,3.49,812.33,10.24Z"/></g><g id="Layer_3" data-name="Layer 3"><path class="cls-2" d="M393.5,351.2,681.38,506.81a13.72,13.72,0,0,1,0,24.52L393.5,686.93c-10.08,5.45-22.68-1.36-22.68-12.26V363.47C370.82,352.57,383.42,345.75,393.5,351.2Z"/></g></svg>